PathFileType	4	(X/Y/Z)	Patient4_TMGait_0pt6_02_right_46.trc.trc
DataRate	CameraRate	NumFrames	NumMarkers	Units	OrigDataRate	OrigDataStartFrame	OrigNumFrames
81.395348837209	81.395348837209	4	33	mm	81.395348837209	1	       141
Frame#	Time	Sacral			L.Shoulder			Chest			R.Shoulder			Neck			R.ASIS			L.ASIS			R.Thigh.Superior			R.Thigh.Lateral			R.Thigh.Inferior			R.Patella			L.Thigh.Superior			L.Thigh.Lateral			L.Thigh.Inferior			L.Patella			L.Shank.Superior			L.Shank.Lateral			L.Shank.Inferior			R.Shank.Superior			R.Shank.Lateral			R.Shank.Inferior			R.Heel			R.Midfoot.Superior			R.Midfoot.Lateral			R.Toe			L.Heel			L.Midfoot.Lateral			L.Midfoot.Superior			L.Toe			L.Elbow			L.Wrist			R.Elbow			R.Wrist			
		X1	Y1	Z1	X2	Y2	Z2	X3	Y3	Z3	X4	Y4	Z4	X5	Y5	Z5	X6	Y6	Z6	X7	Y7	Z7	X8	Y8	Z8	X9	Y9	Z9	X10	Y10	Z10	X11	Y11	Z11	X12	Y12	Z12	X13	Y13	Z13	X14	Y14	Z14	X15	Y15	Z15	X16	Y16	Z16	X17	Y17	Z17	X18	Y18	Z18	X19	Y19	Z19	X20	Y20	Z20	X21	Y21	Z21	X22	Y22	Z22	X23	Y23	Z23	X24	Y24	Z24	X25	Y25	Z25	X26	Y26	Z26	X27	Y27	Z27	X28	Y28	Z28	X29	Y29	Z29	X30	Y30	Z30	X31	Y31	Z31	X32	Y32	Z32	X33	Y33	Z33	

1	55.530000000000	839.085648065893	1010.991277428147	447.311592177221	1031.458737815409	1439.378589052162	277.457586265833	1129.232067451428	1361.118573331479	437.211537530318	1045.933610362304	1434.375494216843	611.828976859844	1029.757429749969	1497.077288700952	430.833659781109	1063.391875362740	946.693362061704	565.538703902878	1053.851958861600	962.732272104646	292.001700747550	1148.560239510734	777.124821202655	539.997250644123	1108.688809516417	658.803214848496	617.187125746513	1200.536192577947	618.595195908450	539.654299400209	1218.885618926264	503.485724624096	564.310895200107	1106.298455077931	753.716198374334	323.609177355455	1017.539311562975	636.114635603898	270.225531613388	1101.987307315854	560.362153174089	336.130128061082	1102.584727906251	490.542358172637	349.102108235095	1075.725443627243	418.025286925423	342.799205472864	986.429769206903	302.989083323313	294.186369700305	1033.649579867216	193.773530723583	369.876644812382	1136.888201256823	432.677480260004	573.662682486848	1011.719482123530	405.039298642418	633.024832763035	989.378260546175	295.956017236482	588.517492231323	786.990220320139	256.513112221551	559.346428335557	943.783915422149	172.588470653527	601.728719904354	834.910112752024	187.792048658853	632.574530667134	991.019488688449	52.417927529881	628.744774056387	903.083163269178	39.215917984314	413.423411707481	977.914553033644	36.254920538729	333.925602035658	1061.091332807549	96.360207364193	361.733777261420	1190.197824645553	41.111160002934	335.386901022656	1054.980567852486	1101.164869601264	121.469723596310	1188.493584263585	875.265734381481	139.657723929637	1022.559779797391	1081.175498652860	718.219602049582	1208.020708990286	897.990605894569	690.161064897492	
2	55.542285714286	836.849087161915	1011.811122459983	445.636900562321	1032.266284806173	1439.916047205759	276.839629642731	1128.153439835844	1361.275692353249	437.524839744706	1043.364237928614	1434.647935019047	611.112702146688	1029.012321476636	1497.583790877313	430.231962716182	1060.839085677402	947.951040658797	565.744339103681	1052.670135051401	963.136879218156	291.886679857010	1148.795422855832	782.363593717424	539.726683018227	1112.434757133636	663.444930968087	617.397131526558	1204.879291802584	625.383441125857	539.574416320908	1226.655888338251	511.137459435180	564.477531475765	1102.382586717179	752.977090464212	324.059898687454	1012.646667319274	636.371297450696	269.793431420317	1095.610126271029	559.710303497358	336.172687740874	1095.216624564471	490.067232832674	349.136320752437	1068.419055912478	417.936878844422	342.544505710137	979.081240198992	303.015634160172	293.726755016954	1025.946073826134	193.777351136662	369.687866994657	1147.037141530657	437.899931103835	573.763298334677	1023.001330855419	405.821598823399	632.890301815778	1004.810208415096	296.100171716712	588.357941498753	804.212824715994	248.709351605734	559.176146607362	964.075807239624	171.575432617458	601.229760508231	854.911059778251	182.105738606686	632.354727943467	1016.275723819528	53.617780834301	628.000534863100	895.149242068148	39.238068701723	413.343182515428	970.069767232944	36.212719073840	333.827510559545	1053.250357334731	96.357698655760	361.563398533245	1182.361710918666	41.098399300592	335.355872319341	1063.275587007036	1104.523292867607	118.646517925298	1207.574470343713	886.547532983762	138.633067753794	1012.956878876101	1082.033548730516	717.708699479616	1176.384860239509	883.165325791749	695.672830117502	
3	55.554571428571	834.653251564489	1012.609552853689	444.015989394676	1033.065678333611	1440.438946647913	276.266132209119	1127.097637288853	1361.416144068386	437.857320491604	1040.857949875511	1434.896086208273	610.452722842901	1028.287017584576	1498.071153930967	429.670350153032	1058.289623942464	949.161153837404	565.948712051577	1051.493856259538	963.527188807312	291.794600858352	1148.947447509808	787.503416488554	539.461760909152	1116.051322356047	668.005351956024	617.595373484721	1209.056741460837	632.049361437295	539.483162953831	1234.185871103154	518.694728398542	564.627553097650	1098.489522455490	752.236439163012	324.521306935914	1007.763718703742	636.623877336379	269.380300363047	1089.242748646988	559.057691831115	336.220007852436	1087.869033464303	489.608140103922	349.171251114837	1061.150198035321	417.849189402789	342.298402918208	971.771745062301	303.037148139989	293.276543676432	1018.304712346201	193.783234967713	369.508345164006	1157.015267067273	443.042865277114	573.864824032349	1034.211739682802	406.450682450609	632.825209853524	1020.202007255727	296.123219333647	588.264204516829	821.462147728347	240.734874215329	559.180281016133	984.392406194616	170.435483935532	600.818991073133	874.989100622619	176.273840993122	632.279630773989	1041.584134609355	54.731845210687	627.297957936189	887.299166694149	39.253489688714	413.263475832979	962.301118601227	36.170362649784	333.731517379970	1045.483285769062	96.356522872946	361.401692975656	1174.602416113441	41.092731208713	335.327435714408	1071.409982603150	1107.873927961100	115.884731666381	1226.339074666811	897.868218107007	137.721523977818	1003.360921316190	1082.900718429118	717.201964886834	1145.020388847034	869.102790983648	701.030864355448	
4	55.566857142857	832.541527764690	1013.353256492602	442.509230529225	1033.848626637418	1440.920972920584	275.782880004768	1126.083479139034	1361.514488256973	438.233531188417	1038.467773473841	1435.094638814252	609.901450124356	1027.599703445992	1498.512124843183	429.190583268020	1055.763520073637	950.267879034303	566.159598797403	1050.328858564124	963.886960594895	291.746658083562	1148.926719605151	792.396936688434	539.209963931431	1119.370264193341	672.351002753984	617.776545433008	1212.866528859466	638.404775804518	539.378069796865	1241.199049029581	526.012881978366	564.745025412062	1094.627348448238	751.483822734154	324.999711599789	1002.875995319315	636.869743641201	268.996272608328	1082.863772364799	558.400336572043	336.273493900880	1080.527779092260	489.174688937065	349.204174520228	1053.913571717202	417.763063738681	342.066205886236	964.498392331926	303.049010782427	292.842216466502	1010.740300379554	193.792584009618	369.346014915991	1166.631801731309	447.993601515036	573.971050671922	1045.311394036255	406.739757252668	632.909774933296	1035.573201294697	295.895690035065	588.301929769188	838.921757441242	232.359356772539	559.528000747268	1004.864756497525	169.086640004575	600.594245086272	895.367355226154	170.153553248034	632.493075757240	1067.112217783231	55.792581569881	626.695718628631	879.564866428605	39.257306019148	413.186173121601	954.634447052440	36.127373163024	333.640819486352	1037.814104710594	96.358574216762	361.256046354373	1166.945495513101	41.101017028215	335.304325581478	1079.251326258674	1111.208572841714	113.248072515069	1244.501214879980	909.328942017042	137.052388827906	993.708502958144	1083.840441556206	716.718775517142	1114.124053357174	856.551953048468	706.091322800532	
